<svg width="254" height="504" xmlns="http://www.w3.org/2000/svg" xmlns:xlink="http://www.w3.org/1999/xlink" overflow="hidden"><defs><filter id="fx0" x="-10%" y="-10%" width="120%" height="120%" filterUnits="userSpaceOnUse" primitiveUnits="userSpaceOnUse"><feComponentTransfer color-interpolation-filters="sRGB"><feFuncR type="discrete" tableValues="0 0"/><feFuncG type="discrete" tableValues="0 0"/><feFuncB type="discrete" tableValues="0 0"/><feFuncA type="linear" slope="0.631373" intercept="0"/></feComponentTransfer><feGaussianBlur stdDeviation="2 2"/></filter><filter id="fx1" x="-10%" y="-10%" width="120%" height="120%" filterUnits="userSpaceOnUse" primitiveUnits="userSpaceOnUse"><feComponentTransfer color-interpolation-filters="sRGB"><feFuncR type="discrete" tableValues="0 0"/><feFuncG type="discrete" tableValues="0 0"/><feFuncB type="discrete" tableValues="0 0"/><feFuncA type="linear" slope="0.631373" intercept="0"/></feComponentTransfer><feGaussianBlur stdDeviation="2 2"/></filter><clipPath id="clip2"><rect x="65" y="85" width="254" height="504"/></clipPath><clipPath id="clip3"><rect x="-2" y="-2" width="259" height="32"/></clipPath><clipPath id="clip4"><rect x="0" y="0" width="255" height="29"/></clipPath><clipPath id="clip5"><rect x="15" y="13" width="133" height="35"/></clipPath><clipPath id="clip6"><rect x="0" y="0" width="161" height="64"/></clipPath><linearGradient x1="191.5" y1="103" x2="191.5" y2="118" gradientUnits="userSpaceOnUse" spreadMethod="reflect" id="fill7"><stop offset="0" stop-color="#AFAFAF"/><stop offset="0.5" stop-color="#A5A5A5"/><stop offset="1" stop-color="#929292"/></linearGradient></defs><g clip-path="url(#clip2)" transform="translate(-65 -85)"><rect x="76.5001" y="136.5" width="230" height="61" stroke="#000000" stroke-width="1.33333" stroke-miterlimit="8" fill="#FFFFFF"/><rect x="86.5001" y="147.5" width="210" height="12" stroke="#A5A5A5" stroke-width="1.33333" stroke-miterlimit="8" fill="#FFFFFF"/><text font-family="Calibri,Calibri_MSFontService,sans-serif" font-weight="400" font-size="11" transform="translate(176.234 157)">Conv <tspan font-size="11" x="24.1667" y="0">4</tspan></text><rect x="86.5001" y="159.5" width="210" height="11" stroke="#A5A5A5" stroke-width="1.33333" stroke-miterlimit="8" fill="#FFFFFF"/><text font-family="Calibri,Calibri_MSFontService,sans-serif" font-weight="400" font-size="11" transform="translate(166.901 168)">Batchnorm</text><rect x="86.5001" y="170.5" width="210" height="12" stroke="#A5A5A5" stroke-width="1.33333" stroke-miterlimit="8" fill="#FFFFFF"/><text font-family="Calibri,Calibri_MSFontService,sans-serif" font-weight="400" font-size="11" transform="translate(180.317 180)">ReLu</text><rect x="86.5001" y="182.5" width="210" height="11" stroke="#A5A5A5" stroke-width="1.33333" stroke-miterlimit="8" fill="#FFFFFF"/><text font-family="Calibri,Calibri_MSFontService,sans-serif" font-weight="400" font-size="11" transform="translate(171.734 191)">Maxpool</text><g clip-path="url(#clip3)" filter="url(#fx0)" transform="translate(64 98)"><g clip-path="url(#clip4)"><rect x="7" y="7" width="241" height="15" fill="#FF0000"/></g></g><g clip-path="url(#clip5)" filter="url(#fx1)" transform="translate(111 84)"><g clip-path="url(#clip6)"><path d="M4.03125-0.304688C4.03125-0.242187 4.01562-0.1875 3.98438-0.140625 3.95312-0.09375 3.89844-0.0566406 3.82031-0.0292969 3.74219-0.00195313 3.63867 0.0214844 3.50977 0.0410156 3.38086 0.0605469 3.21875 0.0703125 3.02344 0.0703125 2.83594 0.0703125 2.67578 0.0605469 2.54297 0.0410156 2.41016 0.0214844 2.30469-0.00195313 2.22656-0.0292969 2.14844-0.0566406 2.09375-0.09375 2.0625-0.140625 2.03125-0.1875 2.01562-0.242187 2.01562-0.304688L2.01562-14.8594C2.01562-14.9219 2.0332-14.9766 2.06836-15.0234 2.10352-15.0703 2.16211-15.1074 2.24414-15.1348 2.32617-15.1621 2.43164-15.1855 2.56055-15.2051 2.68945-15.2246 2.84375-15.2344 3.02344-15.2344 3.21875-15.2344 3.38086-15.2246 3.50977-15.2051 3.63867-15.1855 3.74219-15.1621 3.82031-15.1348 3.89844-15.1074 3.95312-15.0703 3.98438-15.0234 4.01562-14.9766 4.03125-14.9219 4.03125-14.8594ZM23.4375-0.292969C23.4375-0.230469 23.4219-0.177734 23.3906-0.134766 23.3594-0.0917969 23.3086-0.0546875 23.2383-0.0234375 23.168 0.0078125 23.0703 0.03125 22.9453 0.046875 22.8203 0.0625 22.6641 0.0703125 22.4766 0.0703125 22.2812 0.0703125 22.1211 0.0625 21.9961 0.046875 21.8711 0.03125 21.7715 0.0078125 21.6973-0.0234375 21.623-0.0546875 21.5703-0.0917969 21.5391-0.134766 21.5078-0.177734 21.4922-0.230469 21.4922-0.292969L21.4922-6.70312C21.4922-7.14844 21.4531-7.55469 21.375-7.92188 21.2969-8.28906 21.1719-8.60547 21-8.87109 20.8281-9.13672 20.6094-9.33984 20.3438-9.48047 20.0781-9.62109 19.7656-9.69141 19.4062-9.69141 18.9609-9.69141 18.5137-9.51953 18.0645-9.17578 17.6152-8.83203 17.1211-8.32812 16.582-7.66406L16.582-0.292969C16.582-0.230469 16.5664-0.177734 16.5352-0.134766 16.5039-0.0917969 16.4512-0.0546875 16.377-0.0234375 16.3027 0.0078125 16.2031 0.03125 16.0781 0.046875 15.9531 0.0625 15.7969 0.0703125 15.6094 0.0703125 15.4297 0.0703125 15.2754 0.0625 15.1465 0.046875 15.0176 0.03125 14.916 0.0078125 14.8418-0.0234375 14.7676-0.0546875 14.7168-0.0917969 14.6895-0.134766 14.6621-0.177734 14.6484-0.230469 14.6484-0.292969L14.6484-6.70312C14.6484-7.14844 14.6055-7.55469 14.5195-7.92188 14.4336-8.28906 14.3047-8.60547 14.1328-8.87109 13.9609-9.13672 13.7441-9.33984 13.4824-9.48047 13.2207-9.62109 12.9102-9.69141 12.5508-9.69141 12.1055-9.69141 11.6562-9.51953 11.2031-9.17578 10.75-8.83203 10.2578-8.32812 9.72656-7.66406L9.72656-0.292969C9.72656-0.230469 9.71094-0.177734 9.67969-0.134766 9.64844-0.0917969 9.59766-0.0546875 9.52734-0.0234375 9.45703 0.0078125 9.35938 0.03125 9.23438 0.046875 9.10938 0.0625 8.94922 0.0703125 8.75391 0.0703125 8.56641 0.0703125 8.41016 0.0625 8.28516 0.046875 8.16016 0.03125 8.06055 0.0078125 7.98633-0.0234375 7.91211-0.0546875 7.86133-0.0917969 7.83398-0.134766 7.80664-0.177734 7.79297-0.230469 7.79297-0.292969L7.79297-10.8398C7.79297-10.9023 7.80469-10.9551 7.82812-10.998 7.85156-11.041 7.89844-11.0801 7.96875-11.1152 8.03906-11.1504 8.12891-11.1738 8.23828-11.1855 8.34766-11.1973 8.49219-11.2031 8.67188-11.2031 8.84375-11.2031 8.98633-11.1973 9.09961-11.1855 9.21289-11.1738 9.30078-11.1504 9.36328-11.1152 9.42578-11.0801 9.4707-11.041 9.49805-10.998 9.52539-10.9551 9.53906-10.9023 9.53906-10.8398L9.53906-9.44531C10.1328-10.1094 10.709-10.5957 11.2676-10.9043 11.8262-11.2129 12.3906-11.3672 12.9609-11.3672 13.3984-11.3672 13.791-11.3164 14.1387-11.2148 14.4863-11.1133 14.793-10.9707 15.0586-10.7871 15.3242-10.6035 15.5508-10.3848 15.7383-10.1309 15.9258-9.87695 16.082-9.59375 16.207-9.28125 16.5586-9.66406 16.8926-9.98828 17.209-10.2539 17.5254-10.5195 17.8301-10.7344 18.123-10.8984 18.416-11.0625 18.7012-11.1816 18.9785-11.2559 19.2559-11.3301 19.5352-11.3672 19.8164-11.3672 20.4961-11.3672 21.0664-11.248 21.5273-11.0098 21.9883-10.7715 22.3613-10.4531 22.6465-10.0547 22.9316-9.65625 23.1348-9.18945 23.2559-8.6543 23.377-8.11914 23.4375-7.55469 23.4375-6.96094ZM34.9049-0.28125C34.9049-0.1875 34.8737-0.117187 34.8112-0.0703125 34.7487-0.0234375 34.6628 0.0117188 34.5534 0.0351562 34.444 0.0585937 34.2839 0.0703125 34.0729 0.0703125 33.8698 0.0703125 33.7077 0.0585937 33.5866 0.0351562 33.4655 0.0117188 33.3776-0.0234375 33.3229-0.0703125 33.2682-0.117187 33.2409-0.1875 33.2409-0.28125L33.2409-1.33594C32.7799-0.84375 32.2663-0.460937 31.6999-0.1875 31.1335 0.0859375 30.5339 0.222656 29.901 0.222656 29.3464 0.222656 28.8444 0.150391 28.3952 0.00585938 27.946-0.138672 27.5632-0.347656 27.2467-0.621094 26.9303-0.894531 26.6842-1.23047 26.5085-1.62891 26.3327-2.02734 26.2448-2.48047 26.2448-2.98828 26.2448-3.58203 26.3659-4.09766 26.6081-4.53516 26.8503-4.97266 27.1979-5.33594 27.651-5.625 28.1042-5.91406 28.6589-6.13086 29.3151-6.27539 29.9714-6.41992 30.7096-6.49219 31.5299-6.49219L32.9831-6.49219 32.9831-7.3125C32.9831-7.71875 32.9401-8.07812 32.8542-8.39062 32.7682-8.70312 32.6296-8.96289 32.4382-9.16992 32.2467-9.37695 31.9987-9.5332 31.694-9.63867 31.3893-9.74414 31.0143-9.79688 30.569-9.79688 30.0924-9.79688 29.6647-9.74023 29.2858-9.62695 28.9069-9.51367 28.5749-9.38867 28.2897-9.25195 28.0046-9.11523 27.7663-8.99023 27.5749-8.87695 27.3835-8.76367 27.2409-8.70703 27.1471-8.70703 27.0846-8.70703 27.0299-8.72266 26.9831-8.75391 26.9362-8.78516 26.8952-8.83203 26.86-8.89453 26.8249-8.95703 26.7995-9.03711 26.7839-9.13477 26.7682-9.23242 26.7604-9.33984 26.7604-9.45703 26.7604-9.65234 26.7741-9.80664 26.8014-9.91992 26.8288-10.0332 26.8952-10.1406 27.0007-10.2422 27.1061-10.3438 27.2878-10.4629 27.5456-10.5996 27.8034-10.7363 28.1003-10.8613 28.4362-10.9746 28.7721-11.0879 29.1393-11.1816 29.5378-11.2559 29.9362-11.3301 30.3385-11.3672 30.7448-11.3672 31.5026-11.3672 32.1471-11.2812 32.6784-11.1094 33.2096-10.9375 33.6393-10.6855 33.9674-10.3535 34.2956-10.0215 34.5339-9.60938 34.6823-9.11719 34.8307-8.625 34.9049-8.05078 34.9049-7.39453ZM32.9831-5.09766 31.3307-5.09766C30.7995-5.09766 30.3385-5.05273 29.9479-4.96289 29.5573-4.87305 29.2331-4.74023 28.9753-4.56445 28.7174-4.38867 28.528-4.17773 28.4069-3.93164 28.2858-3.68555 28.2253-3.40234 28.2253-3.08203 28.2253-2.53516 28.3991-2.09961 28.7467-1.77539 29.0944-1.45117 29.5807-1.28906 30.2057-1.28906 30.7135-1.28906 31.1842-1.41797 31.6178-1.67578 32.0514-1.93359 32.5065-2.32812 32.9831-2.85938ZM47.2721-10.3594C47.2721-10.0859 47.235-9.88867 47.1608-9.76758 47.0866-9.64648 46.9909-9.58594 46.8737-9.58594L45.362-9.58594C45.6354-9.30469 45.8268-8.99414 45.9362-8.6543 46.0456-8.31445 46.1003-7.96094 46.1003-7.59375 46.1003-6.98437 46.0026-6.44531 45.8073-5.97656 45.612-5.50781 45.3327-5.11133 44.9694-4.78711 44.6061-4.46289 44.1745-4.21484 43.6745-4.04297 43.1745-3.87109 42.6198-3.78516 42.0104-3.78516 41.5807-3.78516 41.1725-3.8418 40.7858-3.95508 40.3991-4.06836 40.1003-4.21094 39.8893-4.38281 39.7487-4.24219 39.6335-4.08203 39.5436-3.90234 39.4538-3.72266 39.4089-3.51562 39.4089-3.28125 39.4089-3.00781 39.5358-2.78125 39.7897-2.60156 40.0436-2.42188 40.3815-2.32422 40.8034-2.30859L43.5573-2.19141C44.0807-2.17578 44.5612-2.10352 44.9987-1.97461 45.4362-1.8457 45.8151-1.66211 46.1354-1.42383 46.4557-1.18555 46.7057-0.892578 46.8854-0.544922 47.0651-0.197266 47.1549 0.207031 47.1549 0.667969 47.1549 1.15234 47.0534 1.61328 46.8503 2.05078 46.6471 2.48828 46.3366 2.87305 45.9186 3.20508 45.5006 3.53711 44.9674 3.79883 44.319 3.99023 43.6706 4.18164 42.9049 4.27734 42.0221 4.27734 41.1706 4.27734 40.446 4.20508 39.8483 4.06055 39.2507 3.91602 38.7604 3.71875 38.3776 3.46875 37.9948 3.21875 37.7174 2.91992 37.5456 2.57227 37.3737 2.22461 37.2878 1.84766 37.2878 1.44141 37.2878 1.18359 37.319 0.933594 37.3815 0.691406 37.444 0.449219 37.5397 0.21875 37.6686 0 37.7975-0.21875 37.9577-0.427734 38.1491-0.626953 38.3405-0.826172 38.5612-1.02344 38.8112-1.21875 38.4284-1.41406 38.1452-1.66016 37.9616-1.95703 37.778-2.25391 37.6862-2.57422 37.6862-2.91797 37.6862-3.39453 37.7839-3.82031 37.9792-4.19531 38.1745-4.57031 38.4167-4.90625 38.7057-5.20312 38.4635-5.49219 38.2721-5.81836 38.1315-6.18164 37.9909-6.54492 37.9206-6.98437 37.9206-7.5 37.9206-8.10156 38.0221-8.64062 38.2253-9.11719 38.4284-9.59375 38.7096-9.99609 39.069-10.3242 39.4284-10.6523 39.86-10.9043 40.3639-11.0801 40.8678-11.2559 41.4167-11.3438 42.0104-11.3438 42.3307-11.3438 42.6296-11.3262 42.9069-11.291 43.1842-11.2559 43.444-11.207 43.6862-11.1445L46.8737-11.1445C47.0065-11.1445 47.1061-11.0801 47.1725-10.9512 47.2389-10.8223 47.2721-10.625 47.2721-10.3594ZM44.2487-7.58203C44.2487-8.30078 44.0514-8.86133 43.6569-9.26367 43.2624-9.66602 42.7018-9.86719 41.9753-9.86719 41.6003-9.86719 41.2741-9.80469 40.9967-9.67969 40.7194-9.55469 40.4889-9.38281 40.3053-9.16406 40.1217-8.94531 39.985-8.69336 39.8952-8.4082 39.8053-8.12305 39.7604-7.82422 39.7604-7.51172 39.7604-6.81641 39.9577-6.26953 40.3522-5.87109 40.7467-5.47266 41.2995-5.27344 42.0104-5.27344 42.3932-5.27344 42.7253-5.33398 43.0065-5.45508 43.2878-5.57617 43.5202-5.74414 43.7038-5.95898 43.8874-6.17383 44.0241-6.42187 44.1139-6.70312 44.2038-6.98437 44.2487-7.27734 44.2487-7.58203ZM45.2214 0.773438C45.2214 0.320312 45.0358-0.0292969 44.6647-0.275391 44.2936-0.521484 43.7917-0.652344 43.1589-0.667969L40.4284-0.761719C40.1784-0.566406 39.9733-0.380859 39.8132-0.205078 39.653-0.0292969 39.526 0.138672 39.4323 0.298828 39.3385 0.458984 39.2741 0.617188 39.2389 0.773438 39.2038 0.929687 39.1862 1.08984 39.1862 1.25391 39.1862 1.76172 39.444 2.14648 39.9596 2.4082 40.4753 2.66992 41.194 2.80078 42.1159 2.80078 42.7018 2.80078 43.1921 2.74414 43.5866 2.63086 43.9811 2.51758 44.2995 2.36719 44.5417 2.17969 44.7839 1.99219 44.9577 1.77734 45.0632 1.53516 45.1686 1.29297 45.2214 1.03906 45.2214 0.773438ZM58.593-6.02344C58.593-5.71875 58.5165-5.50195 58.3634-5.37305 58.2104-5.24414 58.0358-5.17969 57.8395-5.17969L50.8938-5.17969C50.8937-4.59375 50.9526-4.06641 51.0704-3.59766 51.1881-3.12891 51.3843-2.72656 51.6591-2.39062 51.9339-2.05469 52.2911-1.79687 52.7308-1.61719 53.1704-1.4375 53.7081-1.34766 54.344-1.34766 54.8464-1.34766 55.2939-1.38867 55.6864-1.4707 56.079-1.55273 56.4185-1.64453 56.7051-1.74609 56.9916-1.84766 57.2272-1.93945 57.4117-2.02148 57.5962-2.10352 57.7355-2.14453 57.8298-2.14453 57.8847-2.14453 57.9338-2.13086 57.9769-2.10352 58.0201-2.07617 58.0534-2.03516 58.077-1.98047 58.1005-1.92578 58.1182-1.84961 58.13-1.75195 58.1418-1.6543 58.1477-1.53516 58.1477-1.39453 58.1477-1.29297 58.1437-1.20508 58.1359-1.13086 58.1281-1.05664 58.1184-0.990234 58.1066-0.931641 58.0949-0.873047 58.0754-0.820312 58.048-0.773438 58.0207-0.726562 57.9855-0.681641 57.9426-0.638672 57.8996-0.595703 57.7727-0.525391 57.5617-0.427734 57.3508-0.330078 57.0773-0.234375 56.7414-0.140625 56.4055-0.046875 56.0168 0.0371094 55.5754 0.111328 55.134 0.185547 54.6633 0.222656 54.1633 0.222656 53.2961 0.222656 52.5363 0.101562 51.884-0.140625 51.2316-0.382812 50.6828-0.742188 50.2375-1.21875 49.7922-1.69531 49.4562-2.29297 49.2297-3.01172 49.0031-3.73047 48.8898-4.56641 48.8898-5.51953 48.8898-6.42578 49.007-7.24023 49.2414-7.96289 49.4758-8.68555 49.8137-9.29883 50.2551-9.80273 50.6965-10.3066 51.2297-10.6934 51.8547-10.9629 52.4797-11.2324 53.1789-11.3672 53.9523-11.3672 54.7805-11.3672 55.4855-11.2344 56.0676-10.9688 56.6496-10.7031 57.1281-10.3457 57.5031-9.89648 57.8781-9.44727 58.1535-8.91992 58.3293-8.31445 58.5051-7.70898 58.593-7.0625 58.593-6.375ZM56.6477-6.59766C56.6711-7.61328 56.4451-8.41016 55.9696-8.98828 55.4942-9.56641 54.7887-9.85547 53.8533-9.85547 53.3738-9.85547 52.9533-9.76562 52.5917-9.58594 52.2301-9.40625 51.9275-9.16797 51.6838-8.87109 51.44-8.57422 51.2514-8.22852 51.1178-7.83398 50.9842-7.43945 50.9095-7.02734 50.8938-6.59766ZM69.3313-0.304688C69.3313-0.242187 69.3156-0.1875 69.2844-0.140625 69.2531-0.09375 69.1984-0.0566406 69.1203-0.0292969 69.0422-0.00195313 68.9387 0.0214844 68.8098 0.0410156 68.6809 0.0605469 68.5188 0.0703125 68.3234 0.0703125 68.1359 0.0703125 67.9758 0.0605469 67.843 0.0410156 67.7102 0.0214844 67.6047-0.00195313 67.5266-0.0292969 67.4484-0.0566406 67.3938-0.09375 67.3625-0.140625 67.3313-0.1875 67.3156-0.242187 67.3156-0.304688L67.3156-14.8594C67.3156-14.9219 67.3332-14.9766 67.3684-15.0234 67.4035-15.0703 67.4621-15.1074 67.5441-15.1348 67.6262-15.1621 67.7316-15.1855 67.8605-15.2051 67.9895-15.2246 68.1438-15.2344 68.3234-15.2344 68.5188-15.2344 68.6809-15.2246 68.8098-15.2051 68.9387-15.1855 69.0422-15.1621 69.1203-15.1348 69.1984-15.1074 69.2531-15.0703 69.2844-15.0234 69.3156-14.9766 69.3313-14.9219 69.3313-14.8594ZM82.175-0.292969C82.175-0.230469 82.1594-0.177734 82.1281-0.134766 82.0969-0.0917969 82.0461-0.0546875 81.9758-0.0234375 81.9055 0.0078125 81.8078 0.03125 81.6828 0.046875 81.5578 0.0625 81.4016 0.0703125 81.2141 0.0703125 81.0188 0.0703125 80.8586 0.0625 80.7336 0.046875 80.6086 0.03125 80.5109 0.0078125 80.4406-0.0234375 80.3703-0.0546875 80.3195-0.0917969 80.2883-0.134766 80.257-0.177734 80.2414-0.230469 80.2414-0.292969L80.2414-6.46875C80.2414-7.07031 80.1945-7.55469 80.1008-7.92188 80.007-8.28906 79.8703-8.60547 79.6906-8.87109 79.5109-9.13672 79.2785-9.33984 78.9934-9.48047 78.7082-9.62109 78.3781-9.69141 78.0031-9.69141 77.5188-9.69141 77.0344-9.51953 76.55-9.17578 76.0656-8.83203 75.5578-8.32812 75.0266-7.66406L75.0266-0.292969C75.0266-0.230469 75.0109-0.177734 74.9797-0.134766 74.9484-0.0917969 74.8977-0.0546875 74.8273-0.0234375 74.757 0.0078125 74.6594 0.03125 74.5344 0.046875 74.4094 0.0625 74.2492 0.0703125 74.0539 0.0703125 73.8664 0.0703125 73.7102 0.0625 73.5852 0.046875 73.4602 0.03125 73.3605 0.0078125 73.2863-0.0234375 73.2121-0.0546875 73.1613-0.0917969 73.134-0.134766 73.1066-0.177734 73.093-0.230469 73.093-0.292969L73.093-10.8398C73.093-10.9023 73.1047-10.9551 73.1281-10.998 73.1516-11.041 73.1984-11.0801 73.2688-11.1152 73.3391-11.1504 73.4289-11.1738 73.5383-11.1855 73.6477-11.1973 73.7922-11.2031 73.9719-11.2031 74.1438-11.2031 74.2863-11.1973 74.3996-11.1855 74.5129-11.1738 74.6008-11.1504 74.6633-11.1152 74.7258-11.0801 74.7707-11.041 74.798-10.998 74.8254-10.9551 74.8391-10.9023 74.8391-10.8398L74.8391-9.44531C75.4328-10.1094 76.0246-10.5957 76.6145-10.9043 77.2043-11.2129 77.8-11.3672 78.4016-11.3672 79.1047-11.3672 79.6965-11.248 80.177-11.0098 80.6574-10.7715 81.0461-10.4531 81.343-10.0547 81.6398-9.65625 81.8527-9.18945 81.9816-8.6543 82.1105-8.11914 82.175-7.47656 82.175-6.72656ZM95.4628-5.73047C95.4628-4.80859 95.3632-3.98047 95.1639-3.24609 94.9647-2.51172 94.6717-1.88867 94.285-1.37695 93.8983-0.865234 93.4198-0.470703 92.8495-0.193359 92.2792 0.0839844 91.6268 0.222656 90.8924 0.222656 90.5799 0.222656 90.2909 0.191406 90.0253 0.128906 89.7596 0.0664062 89.4999-0.03125 89.246-0.164062 88.9921-0.296875 88.7401-0.464844 88.4901-0.667969 88.2401-0.871094 87.9745-1.10938 87.6932-1.38281L87.6932 3.89062C87.6932 3.95312 87.6776 4.00781 87.6464 4.05469 87.6151 4.10156 87.5643 4.14062 87.494 4.17188 87.4237 4.20312 87.326 4.22656 87.201 4.24219 87.076 4.25781 86.9159 4.26562 86.7206 4.26562 86.5331 4.26562 86.3768 4.25781 86.2518 4.24219 86.1268 4.22656 86.0272 4.20312 85.953 4.17188 85.8788 4.14062 85.828 4.10156 85.8007 4.05469 85.7733 4.00781 85.7596 3.95312 85.7596 3.89062L85.7596-10.8398C85.7596-10.9102 85.7714-10.9668 85.7948-11.0098 85.8182-11.0527 85.8651-11.0898 85.9354-11.1211 86.0057-11.1523 86.0956-11.1738 86.2049-11.1855 86.3143-11.1973 86.4471-11.2031 86.6034-11.2031 86.7674-11.2031 86.9022-11.1973 87.0077-11.1855 87.1132-11.1738 87.201-11.1523 87.2714-11.1211 87.3417-11.0898 87.3905-11.0527 87.4178-11.0098 87.4452-10.9668 87.4589-10.9102 87.4589-10.8398L87.4589-9.42188C87.7792-9.75 88.0878-10.0352 88.3846-10.2773 88.6815-10.5195 88.9803-10.7207 89.2811-10.8809 89.5819-11.041 89.8905-11.1621 90.2069-11.2441 90.5233-11.3262 90.8573-11.3672 91.2089-11.3672 91.9745-11.3672 92.6268-11.2188 93.1659-10.9219 93.7049-10.625 94.1444-10.2188 94.4842-9.70312 94.8241-9.1875 95.0721-8.58789 95.2284-7.9043 95.3846-7.2207 95.4628-6.49609 95.4628-5.73047ZM93.4589-5.50781C93.4589-6.04687 93.4176-6.56836 93.3351-7.07227 93.2526-7.57617 93.1111-8.02344 92.9106-8.41406 92.7102-8.80469 92.441-9.11719 92.103-9.35156 91.7649-9.58594 91.3444-9.70312 90.8414-9.70312 90.5898-9.70312 90.3422-9.66602 90.0985-9.5918 89.8549-9.51758 89.6073-9.40039 89.3557-9.24023 89.1042-9.08008 88.8409-8.86914 88.5657-8.60742 88.2906-8.3457 87.9997-8.02344 87.6932-7.64062L87.6932-3.44531C88.2278-2.79688 88.7348-2.30078 89.2143-1.95703 89.6938-1.61328 90.1968-1.44141 90.7234-1.44141 91.2107-1.44141 91.6293-1.55859 91.9791-1.79297 92.3289-2.02734 92.6119-2.33984 92.8281-2.73047 93.0442-3.12109 93.2034-3.55859 93.3056-4.04297 93.4078-4.52734 93.4589-5.01562 93.4589-5.50781ZM107.461-0.292969C107.461-0.230469 107.448-0.177734 107.42-0.134766 107.393-0.0917969 107.344-0.0546875 107.274-0.0234375 107.204 0.0078125 107.112 0.03125 106.999 0.046875 106.885 0.0625 106.747 0.0703125 106.583 0.0703125 106.403 0.0703125 106.256 0.0625 106.143 0.046875 106.03 0.03125 105.94 0.0078125 105.874-0.0234375 105.807-0.0546875 105.762-0.0917969 105.739-0.134766 105.715-0.177734 105.704-0.230469 105.704-0.292969L105.704-1.6875C105.102-1.02344 104.508-0.539062 103.922-0.234375 103.336 0.0703125 102.743 0.222656 102.141 0.222656 101.438 0.222656 100.846 0.105469 100.366-0.128906 99.8853-0.363281 99.4966-0.681641 99.1997-1.08398 98.9029-1.48633 98.69-1.95508 98.5611-2.49023 98.4322-3.02539 98.3677-3.67578 98.3677-4.44141L98.3677-10.8398C98.3677-10.9023 98.3814-10.9551 98.4087-10.998 98.4361-11.041 98.4888-11.0801 98.5669-11.1152 98.6451-11.1504 98.7466-11.1738 98.8716-11.1855 98.9966-11.1973 99.1529-11.2031 99.3404-11.2031 99.5279-11.2031 99.6841-11.1973 99.8091-11.1855 99.9341-11.1738 100.034-11.1504 100.108-11.1152 100.182-11.0801 100.235-11.041 100.266-10.998 100.297-10.9551 100.313-10.9023 100.313-10.8398L100.313-4.69922C100.313-4.08203 100.358-3.58789 100.448-3.2168 100.538-2.8457 100.674-2.5293 100.858-2.26758 101.042-2.00586 101.274-1.80273 101.555-1.6582 101.836-1.51367 102.165-1.44141 102.54-1.44141 103.024-1.44141 103.506-1.61328 103.987-1.95703 104.467-2.30078 104.977-2.80469 105.516-3.46875L105.516-10.8398C105.516-10.9023 105.53-10.9551 105.557-10.998 105.585-11.041 105.637-11.0801 105.715-11.1152 105.793-11.1504 105.893-11.1738 106.014-11.1855 106.135-11.1973 106.293-11.2031 106.489-11.2031 106.676-11.2031 106.833-11.1973 106.958-11.1855 107.083-11.1738 107.18-11.1504 107.251-11.1152 107.321-11.0801 107.374-11.041 107.409-10.998 107.444-10.9551 107.461-10.9023 107.461-10.8398ZM116.577-1.06641C116.577-0.839844 116.562-0.660156 116.53-0.527344 116.499-0.394531 116.452-0.296875 116.39-0.234375 116.327-0.171875 116.234-0.113281 116.109-0.0585938 115.984-0.00390625 115.841 0.0410156 115.681 0.0761719 115.521 0.111328 115.351 0.140625 115.171 0.164062 114.991 0.1875 114.812 0.199219 114.632 0.199219 114.085 0.199219 113.616 0.126953 113.226-0.0175781 112.835-0.162109 112.515-0.380859 112.265-0.673828 112.015-0.966797 111.833-1.33789 111.72-1.78711 111.607-2.23633 111.55-2.76562 111.55-3.375L111.55-9.53906 110.073-9.53906C109.956-9.53906 109.862-9.60156 109.792-9.72656 109.722-9.85156 109.687-10.0547 109.687-10.3359 109.687-10.4844 109.696-10.6094 109.716-10.7109 109.736-10.8125 109.761-10.8965 109.792-10.9629 109.823-11.0293 109.864-11.0762 109.915-11.1035 109.966-11.1309 110.023-11.1445 110.085-11.1445L111.55-11.1445 111.55-13.6523C111.55-13.707 111.564-13.7578 111.591-13.8047 111.618-13.8516 111.669-13.8926 111.743-13.9277 111.818-13.9629 111.917-13.9883 112.042-14.0039 112.167-14.0195 112.323-14.0273 112.511-14.0273 112.706-14.0273 112.866-14.0195 112.991-14.0039 113.116-13.9883 113.214-13.9629 113.284-13.9277 113.355-13.8926 113.405-13.8516 113.437-13.8047 113.468-13.7578 113.484-13.707 113.484-13.6523L113.484-11.1445 116.191-11.1445C116.253-11.1445 116.308-11.1309 116.355-11.1035 116.402-11.0762 116.443-11.0293 116.478-10.9629 116.513-10.8965 116.538-10.8125 116.554-10.7109 116.57-10.6094 116.577-10.4844 116.577-10.3359 116.577-10.0547 116.542-9.85156 116.472-9.72656 116.402-9.60156 116.308-9.53906 116.191-9.53906L113.484-9.53906 113.484-3.65625C113.484-2.92969 113.591-2.38086 113.806-2.00977 114.021-1.63867 114.405-1.45312 114.96-1.45312 115.14-1.45312 115.3-1.4707 115.441-1.50586 115.581-1.54102 115.706-1.57812 115.816-1.61719 115.925-1.65625 116.019-1.69336 116.097-1.72852 116.175-1.76367 116.245-1.78125 116.308-1.78125 116.347-1.78125 116.384-1.77148 116.419-1.75195 116.454-1.73242 116.482-1.69531 116.501-1.64062 116.521-1.58594 116.538-1.51172 116.554-1.41797 116.57-1.32422 116.577-1.20703 116.577-1.06641Z" fill="#FFFFFF" transform="translate(21.95 36)"/></g></g><rect x="71" y="103" width="241" height="15" fill="url(#fill7)"/><path d="M4.03125-0.304688C4.03125-0.242187 4.01562-0.1875 3.98438-0.140625 3.95312-0.09375 3.89844-0.0566406 3.82031-0.0292969 3.74219-0.00195313 3.63867 0.0214844 3.50977 0.0410156 3.38086 0.0605469 3.21875 0.0703125 3.02344 0.0703125 2.83594 0.0703125 2.67578 0.0605469 2.54297 0.0410156 2.41016 0.0214844 2.30469-0.00195313 2.22656-0.0292969 2.14844-0.0566406 2.09375-0.09375 2.0625-0.140625 2.03125-0.1875 2.01562-0.242187 2.01562-0.304688L2.01562-14.8594C2.01562-14.9219 2.0332-14.9766 2.06836-15.0234 2.10352-15.0703 2.16211-15.1074 2.24414-15.1348 2.32617-15.1621 2.43164-15.1855 2.56055-15.2051 2.68945-15.2246 2.84375-15.2344 3.02344-15.2344 3.21875-15.2344 3.38086-15.2246 3.50977-15.2051 3.63867-15.1855 3.74219-15.1621 3.82031-15.1348 3.89844-15.1074 3.95312-15.0703 3.98438-15.0234 4.01562-14.9766 4.03125-14.9219 4.03125-14.8594ZM23.4375-0.292969C23.4375-0.230469 23.4219-0.177734 23.3906-0.134766 23.3594-0.0917969 23.3086-0.0546875 23.2383-0.0234375 23.168 0.0078125 23.0703 0.03125 22.9453 0.046875 22.8203 0.0625 22.6641 0.0703125 22.4766 0.0703125 22.2812 0.0703125 22.1211 0.0625 21.9961 0.046875 21.8711 0.03125 21.7715 0.0078125 21.6973-0.0234375 21.623-0.0546875 21.5703-0.0917969 21.5391-0.134766 21.5078-0.177734 21.4922-0.230469 21.4922-0.292969L21.4922-6.70312C21.4922-7.14844 21.4531-7.55469 21.375-7.92188 21.2969-8.28906 21.1719-8.60547 21-8.87109 20.8281-9.13672 20.6094-9.33984 20.3438-9.48047 20.0781-9.62109 19.7656-9.69141 19.4062-9.69141 18.9609-9.69141 18.5137-9.51953 18.0645-9.17578 17.6152-8.83203 17.1211-8.32812 16.582-7.66406L16.582-0.292969C16.582-0.230469 16.5664-0.177734 16.5352-0.134766 16.5039-0.0917969 16.4512-0.0546875 16.377-0.0234375 16.3027 0.0078125 16.2031 0.03125 16.0781 0.046875 15.9531 0.0625 15.7969 0.0703125 15.6094 0.0703125 15.4297 0.0703125 15.2754 0.0625 15.1465 0.046875 15.0176 0.03125 14.916 0.0078125 14.8418-0.0234375 14.7676-0.0546875 14.7168-0.0917969 14.6895-0.134766 14.6621-0.177734 14.6484-0.230469 14.6484-0.292969L14.6484-6.70312C14.6484-7.14844 14.6055-7.55469 14.5195-7.92188 14.4336-8.28906 14.3047-8.60547 14.1328-8.87109 13.9609-9.13672 13.7441-9.33984 13.4824-9.48047 13.2207-9.62109 12.9102-9.69141 12.5508-9.69141 12.1055-9.69141 11.6562-9.51953 11.2031-9.17578 10.75-8.83203 10.2578-8.32812 9.72656-7.66406L9.72656-0.292969C9.72656-0.230469 9.71094-0.177734 9.67969-0.134766 9.64844-0.0917969 9.59766-0.0546875 9.52734-0.0234375 9.45703 0.0078125 9.35938 0.03125 9.23438 0.046875 9.10938 0.0625 8.94922 0.0703125 8.75391 0.0703125 8.56641 0.0703125 8.41016 0.0625 8.28516 0.046875 8.16016 0.03125 8.06055 0.0078125 7.98633-0.0234375 7.91211-0.0546875 7.86133-0.0917969 7.83398-0.134766 7.80664-0.177734 7.79297-0.230469 7.79297-0.292969L7.79297-10.8398C7.79297-10.9023 7.80469-10.9551 7.82812-10.998 7.85156-11.041 7.89844-11.0801 7.96875-11.1152 8.03906-11.1504 8.12891-11.1738 8.23828-11.1855 8.34766-11.1973 8.49219-11.2031 8.67188-11.2031 8.84375-11.2031 8.98633-11.1973 9.09961-11.1855 9.21289-11.1738 9.30078-11.1504 9.36328-11.1152 9.42578-11.0801 9.4707-11.041 9.49805-10.998 9.52539-10.9551 9.53906-10.9023 9.53906-10.8398L9.53906-9.44531C10.1328-10.1094 10.709-10.5957 11.2676-10.9043 11.8262-11.2129 12.3906-11.3672 12.9609-11.3672 13.3984-11.3672 13.791-11.3164 14.1387-11.2148 14.4863-11.1133 14.793-10.9707 15.0586-10.7871 15.3242-10.6035 15.5508-10.3848 15.7383-10.1309 15.9258-9.87695 16.082-9.59375 16.207-9.28125 16.5586-9.66406 16.8926-9.98828 17.209-10.2539 17.5254-10.5195 17.8301-10.7344 18.123-10.8984 18.416-11.0625 18.7012-11.1816 18.9785-11.2559 19.2559-11.3301 19.5352-11.3672 19.8164-11.3672 20.4961-11.3672 21.0664-11.248 21.5273-11.0098 21.9883-10.7715 22.3613-10.4531 22.6465-10.0547 22.9316-9.65625 23.1348-9.18945 23.2559-8.6543 23.377-8.11914 23.4375-7.55469 23.4375-6.96094ZM34.9049-0.28125C34.9049-0.1875 34.8737-0.117187 34.8112-0.0703125 34.7487-0.0234375 34.6628 0.0117188 34.5534 0.0351562 34.444 0.0585937 34.2839 0.0703125 34.0729 0.0703125 33.8698 0.0703125 33.7077 0.0585937 33.5866 0.0351562 33.4655 0.0117188 33.3776-0.0234375 33.3229-0.0703125 33.2682-0.117187 33.2409-0.1875 33.2409-0.28125L33.2409-1.33594C32.7799-0.84375 32.2663-0.460937 31.6999-0.1875 31.1335 0.0859375 30.5339 0.222656 29.901 0.222656 29.3464 0.222656 28.8444 0.150391 28.3952 0.00585938 27.946-0.138672 27.5632-0.347656 27.2467-0.621094 26.9303-0.894531 26.6842-1.23047 26.5085-1.62891 26.3327-2.02734 26.2448-2.48047 26.2448-2.98828 26.2448-3.58203 26.3659-4.09766 26.6081-4.53516 26.8503-4.97266 27.1979-5.33594 27.651-5.625 28.1042-5.91406 28.6589-6.13086 29.3151-6.27539 29.9714-6.41992 30.7096-6.49219 31.5299-6.49219L32.9831-6.49219 32.9831-7.3125C32.9831-7.71875 32.9401-8.07812 32.8542-8.39062 32.7682-8.70312 32.6296-8.96289 32.4382-9.16992 32.2467-9.37695 31.9987-9.5332 31.694-9.63867 31.3893-9.74414 31.0143-9.79688 30.569-9.79688 30.0924-9.79688 29.6647-9.74023 29.2858-9.62695 28.9069-9.51367 28.5749-9.38867 28.2897-9.25195 28.0046-9.11523 27.7663-8.99023 27.5749-8.87695 27.3835-8.76367 27.2409-8.70703 27.1471-8.70703 27.0846-8.70703 27.0299-8.72266 26.9831-8.75391 26.9362-8.78516 26.8952-8.83203 26.86-8.89453 26.8249-8.95703 26.7995-9.03711 26.7839-9.13477 26.7682-9.23242 26.7604-9.33984 26.7604-9.45703 26.7604-9.65234 26.7741-9.80664 26.8014-9.91992 26.8288-10.0332 26.8952-10.1406 27.0007-10.2422 27.1061-10.3438 27.2878-10.4629 27.5456-10.5996 27.8034-10.7363 28.1003-10.8613 28.4362-10.9746 28.7721-11.0879 29.1393-11.1816 29.5378-11.2559 29.9362-11.3301 30.3385-11.3672 30.7448-11.3672 31.5026-11.3672 32.1471-11.2812 32.6784-11.1094 33.2096-10.9375 33.6393-10.6855 33.9674-10.3535 34.2956-10.0215 34.5339-9.60938 34.6823-9.11719 34.8307-8.625 34.9049-8.05078 34.9049-7.39453ZM32.9831-5.09766 31.3307-5.09766C30.7995-5.09766 30.3385-5.05273 29.9479-4.96289 29.5573-4.87305 29.2331-4.74023 28.9753-4.56445 28.7174-4.38867 28.528-4.17773 28.4069-3.93164 28.2858-3.68555 28.2253-3.40234 28.2253-3.08203 28.2253-2.53516 28.3991-2.09961 28.7467-1.77539 29.0944-1.45117 29.5807-1.28906 30.2057-1.28906 30.7135-1.28906 31.1842-1.41797 31.6178-1.67578 32.0514-1.93359 32.5065-2.32812 32.9831-2.85938ZM47.2721-10.3594C47.2721-10.0859 47.235-9.88867 47.1608-9.76758 47.0866-9.64648 46.9909-9.58594 46.8737-9.58594L45.362-9.58594C45.6354-9.30469 45.8268-8.99414 45.9362-8.6543 46.0456-8.31445 46.1003-7.96094 46.1003-7.59375 46.1003-6.98437 46.0026-6.44531 45.8073-5.97656 45.612-5.50781 45.3327-5.11133 44.9694-4.78711 44.6061-4.46289 44.1745-4.21484 43.6745-4.04297 43.1745-3.87109 42.6198-3.78516 42.0104-3.78516 41.5807-3.78516 41.1725-3.8418 40.7858-3.95508 40.3991-4.06836 40.1003-4.21094 39.8893-4.38281 39.7487-4.24219 39.6335-4.08203 39.5436-3.90234 39.4538-3.72266 39.4089-3.51562 39.4089-3.28125 39.4089-3.00781 39.5358-2.78125 39.7897-2.60156 40.0436-2.42188 40.3815-2.32422 40.8034-2.30859L43.5573-2.19141C44.0807-2.17578 44.5612-2.10352 44.9987-1.97461 45.4362-1.8457 45.8151-1.66211 46.1354-1.42383 46.4557-1.18555 46.7057-0.892578 46.8854-0.544922 47.0651-0.197266 47.1549 0.207031 47.1549 0.667969 47.1549 1.15234 47.0534 1.61328 46.8503 2.05078 46.6471 2.48828 46.3366 2.87305 45.9186 3.20508 45.5006 3.53711 44.9674 3.79883 44.319 3.99023 43.6706 4.18164 42.9049 4.27734 42.0221 4.27734 41.1706 4.27734 40.446 4.20508 39.8483 4.06055 39.2507 3.91602 38.7604 3.71875 38.3776 3.46875 37.9948 3.21875 37.7174 2.91992 37.5456 2.57227 37.3737 2.22461 37.2878 1.84766 37.2878 1.44141 37.2878 1.18359 37.319 0.933594 37.3815 0.691406 37.444 0.449219 37.5397 0.21875 37.6686 0 37.7975-0.21875 37.9577-0.427734 38.1491-0.626953 38.3405-0.826172 38.5612-1.02344 38.8112-1.21875 38.4284-1.41406 38.1452-1.66016 37.9616-1.95703 37.778-2.25391 37.6862-2.57422 37.6862-2.91797 37.6862-3.39453 37.7839-3.82031 37.9792-4.19531 38.1745-4.57031 38.4167-4.90625 38.7057-5.20312 38.4635-5.49219 38.2721-5.81836 38.1315-6.18164 37.9909-6.54492 37.9206-6.98437 37.9206-7.5 37.9206-8.10156 38.0221-8.64062 38.2253-9.11719 38.4284-9.59375 38.7096-9.99609 39.069-10.3242 39.4284-10.6523 39.86-10.9043 40.3639-11.0801 40.8678-11.2559 41.4167-11.3438 42.0104-11.3438 42.3307-11.3438 42.6296-11.3262 42.9069-11.291 43.1842-11.2559 43.444-11.207 43.6862-11.1445L46.8737-11.1445C47.0065-11.1445 47.1061-11.0801 47.1725-10.9512 47.2389-10.8223 47.2721-10.625 47.2721-10.3594ZM44.2487-7.58203C44.2487-8.30078 44.0514-8.86133 43.6569-9.26367 43.2624-9.66602 42.7018-9.86719 41.9753-9.86719 41.6003-9.86719 41.2741-9.80469 40.9967-9.67969 40.7194-9.55469 40.4889-9.38281 40.3053-9.16406 40.1217-8.94531 39.985-8.69336 39.8952-8.4082 39.8053-8.12305 39.7604-7.82422 39.7604-7.51172 39.7604-6.81641 39.9577-6.26953 40.3522-5.87109 40.7467-5.47266 41.2995-5.27344 42.0104-5.27344 42.3932-5.27344 42.7253-5.33398 43.0065-5.45508 43.2878-5.57617 43.5202-5.74414 43.7038-5.95898 43.8874-6.17383 44.0241-6.42187 44.1139-6.70312 44.2038-6.98437 44.2487-7.27734 44.2487-7.58203ZM45.2214 0.773438C45.2214 0.320312 45.0358-0.0292969 44.6647-0.275391 44.2936-0.521484 43.7917-0.652344 43.1589-0.667969L40.4284-0.761719C40.1784-0.566406 39.9733-0.380859 39.8132-0.205078 39.653-0.0292969 39.526 0.138672 39.4323 0.298828 39.3385 0.458984 39.2741 0.617188 39.2389 0.773438 39.2038 0.929687 39.1862 1.08984 39.1862 1.25391 39.1862 1.76172 39.444 2.14648 39.9596 2.4082 40.4753 2.66992 41.194 2.80078 42.1159 2.80078 42.7018 2.80078 43.1921 2.74414 43.5866 2.63086 43.9811 2.51758 44.2995 2.36719 44.5417 2.17969 44.7839 1.99219 44.9577 1.77734 45.0632 1.53516 45.1686 1.29297 45.2214 1.03906 45.2214 0.773438ZM58.593-6.02344C58.593-5.71875 58.5165-5.50195 58.3634-5.37305 58.2104-5.24414 58.0358-5.17969 57.8395-5.17969L50.8938-5.17969C50.8937-4.59375 50.9526-4.06641 51.0704-3.59766 51.1881-3.12891 51.3843-2.72656 51.6591-2.39062 51.9339-2.05469 52.2911-1.79687 52.7308-1.61719 53.1704-1.4375 53.7081-1.34766 54.344-1.34766 54.8464-1.34766 55.2939-1.38867 55.6864-1.4707 56.079-1.55273 56.4185-1.64453 56.7051-1.74609 56.9916-1.84766 57.2272-1.93945 57.4117-2.02148 57.5962-2.10352 57.7355-2.14453 57.8298-2.14453 57.8847-2.14453 57.9338-2.13086 57.9769-2.10352 58.0201-2.07617 58.0534-2.03516 58.077-1.98047 58.1005-1.92578 58.1182-1.84961 58.13-1.75195 58.1418-1.6543 58.1477-1.53516 58.1477-1.39453 58.1477-1.29297 58.1437-1.20508 58.1359-1.13086 58.1281-1.05664 58.1184-0.990234 58.1066-0.931641 58.0949-0.873047 58.0754-0.820312 58.048-0.773438 58.0207-0.726562 57.9855-0.681641 57.9426-0.638672 57.8996-0.595703 57.7727-0.525391 57.5617-0.427734 57.3508-0.330078 57.0773-0.234375 56.7414-0.140625 56.4055-0.046875 56.0168 0.0371094 55.5754 0.111328 55.134 0.185547 54.6633 0.222656 54.1633 0.222656 53.2961 0.222656 52.5363 0.101562 51.884-0.140625 51.2316-0.382812 50.6828-0.742188 50.2375-1.21875 49.7922-1.69531 49.4562-2.29297 49.2297-3.01172 49.0031-3.73047 48.8898-4.56641 48.8898-5.51953 48.8898-6.42578 49.007-7.24023 49.2414-7.96289 49.4758-8.68555 49.8137-9.29883 50.2551-9.80273 50.6965-10.3066 51.2297-10.6934 51.8547-10.9629 52.4797-11.2324 53.1789-11.3672 53.9523-11.3672 54.7805-11.3672 55.4855-11.2344 56.0676-10.9688 56.6496-10.7031 57.1281-10.3457 57.5031-9.89648 57.8781-9.44727 58.1535-8.91992 58.3293-8.31445 58.5051-7.70898 58.593-7.0625 58.593-6.375ZM56.6477-6.59766C56.6711-7.61328 56.4451-8.41016 55.9696-8.98828 55.4942-9.56641 54.7887-9.85547 53.8533-9.85547 53.3738-9.85547 52.9533-9.76562 52.5917-9.58594 52.2301-9.40625 51.9275-9.16797 51.6838-8.87109 51.44-8.57422 51.2514-8.22852 51.1178-7.83398 50.9842-7.43945 50.9095-7.02734 50.8938-6.59766ZM69.3313-0.304688C69.3313-0.242187 69.3156-0.1875 69.2844-0.140625 69.2531-0.09375 69.1984-0.0566406 69.1203-0.0292969 69.0422-0.00195313 68.9387 0.0214844 68.8098 0.0410156 68.6809 0.0605469 68.5188 0.0703125 68.3234 0.0703125 68.1359 0.0703125 67.9758 0.0605469 67.843 0.0410156 67.7102 0.0214844 67.6047-0.00195313 67.5266-0.0292969 67.4484-0.0566406 67.3938-0.09375 67.3625-0.140625 67.3313-0.1875 67.3156-0.242187 67.3156-0.304688L67.3156-14.8594C67.3156-14.9219 67.3332-14.9766 67.3684-15.0234 67.4035-15.0703 67.4621-15.1074 67.5441-15.1348 67.6262-15.1621 67.7316-15.1855 67.8605-15.2051 67.9895-15.2246 68.1438-15.2344 68.3234-15.2344 68.5188-15.2344 68.6809-15.2246 68.8098-15.2051 68.9387-15.1855 69.0422-15.1621 69.1203-15.1348 69.1984-15.1074 69.2531-15.0703 69.2844-15.0234 69.3156-14.9766 69.3313-14.9219 69.3313-14.8594ZM82.175-0.292969C82.175-0.230469 82.1594-0.177734 82.1281-0.134766 82.0969-0.0917969 82.0461-0.0546875 81.9758-0.0234375 81.9055 0.0078125 81.8078 0.03125 81.6828 0.046875 81.5578 0.0625 81.4016 0.0703125 81.2141 0.0703125 81.0188 0.0703125 80.8586 0.0625 80.7336 0.046875 80.6086 0.03125 80.5109 0.0078125 80.4406-0.0234375 80.3703-0.0546875 80.3195-0.0917969 80.2883-0.134766 80.257-0.177734 80.2414-0.230469 80.2414-0.292969L80.2414-6.46875C80.2414-7.07031 80.1945-7.55469 80.1008-7.92188 80.007-8.28906 79.8703-8.60547 79.6906-8.87109 79.5109-9.13672 79.2785-9.33984 78.9934-9.48047 78.7082-9.62109 78.3781-9.69141 78.0031-9.69141 77.5188-9.69141 77.0344-9.51953 76.55-9.17578 76.0656-8.83203 75.5578-8.32812 75.0266-7.66406L75.0266-0.292969C75.0266-0.230469 75.0109-0.177734 74.9797-0.134766 74.9484-0.0917969 74.8977-0.0546875 74.8273-0.0234375 74.757 0.0078125 74.6594 0.03125 74.5344 0.046875 74.4094 0.0625 74.2492 0.0703125 74.0539 0.0703125 73.8664 0.0703125 73.7102 0.0625 73.5852 0.046875 73.4602 0.03125 73.3605 0.0078125 73.2863-0.0234375 73.2121-0.0546875 73.1613-0.0917969 73.134-0.134766 73.1066-0.177734 73.093-0.230469 73.093-0.292969L73.093-10.8398C73.093-10.9023 73.1047-10.9551 73.1281-10.998 73.1516-11.041 73.1984-11.0801 73.2688-11.1152 73.3391-11.1504 73.4289-11.1738 73.5383-11.1855 73.6477-11.1973 73.7922-11.2031 73.9719-11.2031 74.1438-11.2031 74.2863-11.1973 74.3996-11.1855 74.5129-11.1738 74.6008-11.1504 74.6633-11.1152 74.7258-11.0801 74.7707-11.041 74.798-10.998 74.8254-10.9551 74.8391-10.9023 74.8391-10.8398L74.8391-9.44531C75.4328-10.1094 76.0246-10.5957 76.6145-10.9043 77.2043-11.2129 77.8-11.3672 78.4016-11.3672 79.1047-11.3672 79.6965-11.248 80.177-11.0098 80.6574-10.7715 81.0461-10.4531 81.343-10.0547 81.6398-9.65625 81.8527-9.18945 81.9816-8.6543 82.1105-8.11914 82.175-7.47656 82.175-6.72656ZM95.4628-5.73047C95.4628-4.80859 95.3632-3.98047 95.1639-3.24609 94.9647-2.51172 94.6717-1.88867 94.285-1.37695 93.8983-0.865234 93.4198-0.470703 92.8495-0.193359 92.2792 0.0839844 91.6268 0.222656 90.8924 0.222656 90.5799 0.222656 90.2909 0.191406 90.0253 0.128906 89.7596 0.0664062 89.4999-0.03125 89.246-0.164062 88.9921-0.296875 88.7401-0.464844 88.4901-0.667969 88.2401-0.871094 87.9745-1.10938 87.6932-1.38281L87.6932 3.89062C87.6932 3.95312 87.6776 4.00781 87.6464 4.05469 87.6151 4.10156 87.5643 4.14062 87.494 4.17188 87.4237 4.20312 87.326 4.22656 87.201 4.24219 87.076 4.25781 86.9159 4.26562 86.7206 4.26562 86.5331 4.26562 86.3768 4.25781 86.2518 4.24219 86.1268 4.22656 86.0272 4.20312 85.953 4.17188 85.8788 4.14062 85.828 4.10156 85.8007 4.05469 85.7733 4.00781 85.7596 3.95312 85.7596 3.89062L85.7596-10.8398C85.7596-10.9102 85.7714-10.9668 85.7948-11.0098 85.8182-11.0527 85.8651-11.0898 85.9354-11.1211 86.0057-11.1523 86.0956-11.1738 86.2049-11.1855 86.3143-11.1973 86.4471-11.2031 86.6034-11.2031 86.7674-11.2031 86.9022-11.1973 87.0077-11.1855 87.1132-11.1738 87.201-11.1523 87.2714-11.1211 87.3417-11.0898 87.3905-11.0527 87.4178-11.0098 87.4452-10.9668 87.4589-10.9102 87.4589-10.8398L87.4589-9.42188C87.7792-9.75 88.0878-10.0352 88.3846-10.2773 88.6815-10.5195 88.9803-10.7207 89.2811-10.8809 89.5819-11.041 89.8905-11.1621 90.2069-11.2441 90.5233-11.3262 90.8573-11.3672 91.2089-11.3672 91.9745-11.3672 92.6268-11.2188 93.1659-10.9219 93.7049-10.625 94.1444-10.2188 94.4842-9.70312 94.8241-9.1875 95.0721-8.58789 95.2284-7.9043 95.3846-7.2207 95.4628-6.49609 95.4628-5.73047ZM93.4589-5.50781C93.4589-6.04687 93.4176-6.56836 93.3351-7.07227 93.2526-7.57617 93.1111-8.02344 92.9106-8.41406 92.7102-8.80469 92.441-9.11719 92.103-9.35156 91.7649-9.58594 91.3444-9.70312 90.8414-9.70312 90.5898-9.70312 90.3422-9.66602 90.0985-9.5918 89.8549-9.51758 89.6073-9.40039 89.3557-9.24023 89.1042-9.08008 88.8409-8.86914 88.5657-8.60742 88.2906-8.3457 87.9997-8.02344 87.6932-7.64062L87.6932-3.44531C88.2278-2.79688 88.7348-2.30078 89.2143-1.95703 89.6938-1.61328 90.1968-1.44141 90.7234-1.44141 91.2107-1.44141 91.6293-1.55859 91.9791-1.79297 92.3289-2.02734 92.6119-2.33984 92.8281-2.73047 93.0442-3.12109 93.2034-3.55859 93.3056-4.04297 93.4078-4.52734 93.4589-5.01562 93.4589-5.50781ZM107.461-0.292969C107.461-0.230469 107.448-0.177734 107.42-0.134766 107.393-0.0917969 107.344-0.0546875 107.274-0.0234375 107.204 0.0078125 107.112 0.03125 106.999 0.046875 106.885 0.0625 106.747 0.0703125 106.583 0.0703125 106.403 0.0703125 106.256 0.0625 106.143 0.046875 106.03 0.03125 105.94 0.0078125 105.874-0.0234375 105.807-0.0546875 105.762-0.0917969 105.739-0.134766 105.715-0.177734 105.704-0.230469 105.704-0.292969L105.704-1.6875C105.102-1.02344 104.508-0.539062 103.922-0.234375 103.336 0.0703125 102.743 0.222656 102.141 0.222656 101.438 0.222656 100.846 0.105469 100.366-0.128906 99.8853-0.363281 99.4966-0.681641 99.1997-1.08398 98.9029-1.48633 98.69-1.95508 98.5611-2.49023 98.4322-3.02539 98.3677-3.67578 98.3677-4.44141L98.3677-10.8398C98.3677-10.9023 98.3814-10.9551 98.4087-10.998 98.4361-11.041 98.4888-11.0801 98.5669-11.1152 98.6451-11.1504 98.7466-11.1738 98.8716-11.1855 98.9966-11.1973 99.1529-11.2031 99.3404-11.2031 99.5279-11.2031 99.6841-11.1973 99.8091-11.1855 99.9341-11.1738 100.034-11.1504 100.108-11.1152 100.182-11.0801 100.235-11.041 100.266-10.998 100.297-10.9551 100.313-10.9023 100.313-10.8398L100.313-4.69922C100.313-4.08203 100.358-3.58789 100.448-3.2168 100.538-2.8457 100.674-2.5293 100.858-2.26758 101.042-2.00586 101.274-1.80273 101.555-1.6582 101.836-1.51367 102.165-1.44141 102.54-1.44141 103.024-1.44141 103.506-1.61328 103.987-1.95703 104.467-2.30078 104.977-2.80469 105.516-3.46875L105.516-10.8398C105.516-10.9023 105.53-10.9551 105.557-10.998 105.585-11.041 105.637-11.0801 105.715-11.1152 105.793-11.1504 105.893-11.1738 106.014-11.1855 106.135-11.1973 106.293-11.2031 106.489-11.2031 106.676-11.2031 106.833-11.1973 106.958-11.1855 107.083-11.1738 107.18-11.1504 107.251-11.1152 107.321-11.0801 107.374-11.041 107.409-10.998 107.444-10.9551 107.461-10.9023 107.461-10.8398ZM116.577-1.06641C116.577-0.839844 116.562-0.660156 116.53-0.527344 116.499-0.394531 116.452-0.296875 116.39-0.234375 116.327-0.171875 116.234-0.113281 116.109-0.0585938 115.984-0.00390625 115.841 0.0410156 115.681 0.0761719 115.521 0.111328 115.351 0.140625 115.171 0.164062 114.991 0.1875 114.812 0.199219 114.632 0.199219 114.085 0.199219 113.616 0.126953 113.226-0.0175781 112.835-0.162109 112.515-0.380859 112.265-0.673828 112.015-0.966797 111.833-1.33789 111.72-1.78711 111.607-2.23633 111.55-2.76562 111.55-3.375L111.55-9.53906 110.073-9.53906C109.956-9.53906 109.862-9.60156 109.792-9.72656 109.722-9.85156 109.687-10.0547 109.687-10.3359 109.687-10.4844 109.696-10.6094 109.716-10.7109 109.736-10.8125 109.761-10.8965 109.792-10.9629 109.823-11.0293 109.864-11.0762 109.915-11.1035 109.966-11.1309 110.023-11.1445 110.085-11.1445L111.55-11.1445 111.55-13.6523C111.55-13.707 111.564-13.7578 111.591-13.8047 111.618-13.8516 111.669-13.8926 111.743-13.9277 111.818-13.9629 111.917-13.9883 112.042-14.0039 112.167-14.0195 112.323-14.0273 112.511-14.0273 112.706-14.0273 112.866-14.0195 112.991-14.0039 113.116-13.9883 113.214-13.9629 113.284-13.9277 113.355-13.8926 113.405-13.8516 113.437-13.8047 113.468-13.7578 113.484-13.707 113.484-13.6523L113.484-11.1445 116.191-11.1445C116.253-11.1445 116.308-11.1309 116.355-11.1035 116.402-11.0762 116.443-11.0293 116.478-10.9629 116.513-10.8965 116.538-10.8125 116.554-10.7109 116.57-10.6094 116.577-10.4844 116.577-10.3359 116.577-10.0547 116.542-9.85156 116.472-9.72656 116.402-9.60156 116.308-9.53906 116.191-9.53906L113.484-9.53906 113.484-3.65625C113.484-2.92969 113.591-2.38086 113.806-2.00977 114.021-1.63867 114.405-1.45312 114.96-1.45312 115.14-1.45312 115.3-1.4707 115.441-1.50586 115.581-1.54102 115.706-1.57812 115.816-1.61719 115.925-1.65625 116.019-1.69336 116.097-1.72852 116.175-1.76367 116.245-1.78125 116.308-1.78125 116.347-1.78125 116.384-1.77148 116.419-1.75195 116.454-1.73242 116.482-1.69531 116.501-1.64062 116.521-1.58594 116.538-1.51172 116.554-1.41797 116.57-1.32422 116.577-1.20703 116.577-1.06641Z" fill="#FFFFFF" transform="translate(132.95 118)"/><rect x="77" y="488" width="229" height="20" stroke="#FFFFFF" stroke-width="2" stroke-miterlimit="8" fill="#5B9BD5"/><text fill="#FFFFFF" font-family="Calibri,Calibri_MSFontService,sans-serif" font-weight="400" font-size="11" transform="translate(156.767 501)">Fully Connected</text><rect x="77" y="514" width="229" height="20" stroke="#FFFFFF" stroke-width="2" stroke-miterlimit="8" fill="#5B9BD5"/><text fill="#FFFFFF" font-family="Calibri,Calibri_MSFontService,sans-serif" font-weight="400" font-size="11" transform="translate(172.267 527)">Soft Max</text><rect x="78.5001" y="552.5" width="21" height="29" stroke="#000000" stroke-linejoin="round" stroke-miterlimit="10" fill="none"/><text font-family="Arial,Arial_MSFontService,sans-serif" font-weight="400" font-size="19" transform="translate(83.7249 573)">١</text><rect x="101.5" y="552.5" width="21" height="29" stroke="#000000" stroke-linejoin="round" stroke-miterlimit="10" fill="none"/><text font-family="Arial,Arial_MSFontService,sans-serif" font-weight="400" font-size="19" transform="translate(106.741 573)">٢</text><rect x="124.5" y="552.5" width="21" height="29" stroke="#000000" stroke-linejoin="round" stroke-miterlimit="10" fill="none"/><text font-family="Arial,Arial_MSFontService,sans-serif" font-weight="400" font-size="19" transform="translate(129.758 573)">٣</text><rect x="147.5" y="552.5" width="21" height="29" stroke="#000000" stroke-linejoin="round" stroke-miterlimit="10" fill="none"/><text font-family="Arial,Arial_MSFontService,sans-serif" font-weight="400" font-size="19" transform="translate(152.774 573)">٤</text><rect x="170.5" y="552.5" width="21" height="29" stroke="#000000" stroke-linejoin="round" stroke-miterlimit="10" fill="none"/><text font-family="Arial,Arial_MSFontService,sans-serif" font-weight="400" font-size="19" transform="translate(175.791 573)">٥</text><rect x="193.5" y="552.5" width="21" height="29" stroke="#000000" stroke-linejoin="round" stroke-miterlimit="10" fill="none"/><text font-family="Arial,Arial_MSFontService,sans-serif" font-weight="400" font-size="19" transform="translate(198.807 573)">٦</text><rect x="216.5" y="552.5" width="21" height="29" stroke="#000000" stroke-linejoin="round" stroke-miterlimit="10" fill="none"/><text font-family="Arial,Arial_MSFontService,sans-serif" font-weight="400" font-size="19" transform="translate(221.824 573)">٧</text><rect x="239.5" y="552.5" width="21" height="29" stroke="#000000" stroke-linejoin="round" stroke-miterlimit="10" fill="none"/><text font-family="Arial,Arial_MSFontService,sans-serif" font-weight="400" font-size="19" transform="translate(244.84 573)">٨</text><rect x="262.5" y="552.5" width="21" height="29" stroke="#000000" stroke-linejoin="round" stroke-miterlimit="10" fill="none"/><text font-family="Arial,Arial_MSFontService,sans-serif" font-weight="400" font-size="19" transform="translate(267.857 573)">٩</text><rect x="285.5" y="552.5" width="21" height="29" stroke="#000000" stroke-linejoin="round" stroke-miterlimit="10" fill="none"/><text font-family="Arial,Arial_MSFontService,sans-serif" font-weight="400" font-size="19" transform="translate(290.873 573)">٠</text><path d="M0.115098-0.656656 103.073 17.3899 102.843 18.7032-0.115098 0.656656ZM103.649 14.1066C105.825 14.488 107.28 16.5611 106.898 18.7371 106.517 20.9131 104.444 22.3678 102.268 21.9864 100.092 21.605 98.637 19.5319 99.0184 17.3559 99.3998 15.18 101.473 13.7252 103.649 14.1066Z" fill="#000000" fill-opacity="0.658824" transform="matrix(-1 0 0 1 192.458 534.5)"/><path d="M0.146803-0.650302 80.0886 17.3962 79.795 18.6968-0.146803 0.650302ZM80.8226 14.1447C82.9776 14.6312 84.3301 16.7724 83.8437 18.9273 83.3572 21.0822 81.2159 22.4348 79.061 21.9483 76.9061 21.4619 75.5536 19.3206 76.04 17.1657 76.5265 15.0108 78.6677 13.6582 80.8226 14.1447Z" fill="#000000" fill-opacity="0.658824" transform="matrix(-1 0 0 1 192.442 534.5)"/><path d="M0.201466-0.635497 57.1268 17.411 56.7239 18.682-0.201466 0.635497ZM58.1341 14.2335C60.24 14.9011 61.4059 17.1495 60.7383 19.2553 60.0707 21.3612 57.8224 22.5271 55.7166 21.8595 53.6107 21.1919 52.4448 18.9436 53.1124 16.8377 53.78 14.7319 56.0283 13.5659 58.1341 14.2335Z" fill="#000000" fill-opacity="0.658824" transform="matrix(-1 0 0 1 192.425 534.5)"/><path d="M0.31321-0.58851 34.222 17.458 33.5956 18.635-0.31321 0.58851ZM35.788 14.5154C37.7382 15.5533 38.4777 17.9756 37.4398 19.9258 36.4019 21.8759 33.9797 22.6155 32.0295 21.5776 30.0794 20.5397 29.3398 18.1174 30.3777 16.1672 31.4156 14.2171 33.8379 13.4776 35.788 14.5154Z" fill="#000000" fill-opacity="0.658824" transform="matrix(-1 0 0 1 192.409 534.5)"/><path d="M0.57076-0.344496 11.4631 17.702 10.3216 18.391-0.57076 0.344496ZM14.3169 15.9795C15.4585 17.8709 14.8507 20.3295 12.9594 21.4711 11.068 22.6126 8.60938 22.0048 7.46783 20.1135 6.32627 18.2221 6.93408 15.7635 8.82541 14.6219 10.7167 13.4804 13.1754 14.0882 14.3169 15.9795Z" fill="#000000" fill-opacity="0.658824" transform="matrix(-1 0 0 1 192.392 534.5)"/><path d="M193.053 534.128 205.178 552.175 204.071 552.918 191.947 534.872ZM207.944 550.316C209.176 552.15 208.689 554.635 206.855 555.867 205.021 557.099 202.536 556.611 201.304 554.777 200.072 552.943 200.56 550.458 202.393 549.226 204.227 547.994 206.712 548.482 207.944 550.316Z" fill="#000000" fill-opacity="0.658824"/><path d="M192.805 533.907 227.945 551.954 227.336 553.14 192.195 535.093ZM229.468 548.988C231.433 549.998 232.208 552.409 231.199 554.374 230.19 556.339 227.778 557.114 225.813 556.105 223.848 555.096 223.073 552.684 224.082 550.719 225.092 548.754 227.503 547.979 229.468 548.988Z" fill="#000000" fill-opacity="0.658824"/><path d="M192.698 533.863 250.855 551.91 250.459 553.183 192.302 535.137ZM251.842 548.726C253.952 549.381 255.132 551.622 254.477 553.732 253.823 555.842 251.581 557.022 249.472 556.367 247.362 555.712 246.182 553.471 246.837 551.361 247.491 549.251 249.733 548.072 251.842 548.726Z" fill="#000000" fill-opacity="0.658824"/><path d="M192.645 533.849 273.818 551.896 273.529 553.197 192.355 535.151ZM274.542 548.642C276.698 549.121 278.058 551.258 277.578 553.415 277.099 555.571 274.962 556.931 272.806 556.451 270.649 555.972 269.29 553.835 269.769 551.678 270.248 549.522 272.385 548.162 274.542 548.642Z" fill="#000000" fill-opacity="0.658824"/><path d="M192.614 533.843 296.804 551.89 296.576 553.203 192.386 535.157ZM297.373 548.605C299.549 548.982 301.008 551.052 300.631 553.229 300.254 555.406 298.184 556.865 296.007 556.488 293.831 556.111 292.372 554.041 292.749 551.864 293.126 549.687 295.196 548.228 297.373 548.605Z" fill="#000000" fill-opacity="0.658824"/><path d="M196.5 507.006 192.5 515.006 188.5 507.006Z" fill="#4472C4"/><path d="M191.833 480.476 191.969 482.362 191.304 482.41 191.168 480.524ZM195.53 480.768 192.116 489.035 187.551 481.344Z" fill="#4472C4"/><path d="M0.333139-0.0113687 0.721619 11.3724 0.0553401 11.3951-0.333139 0.0113687ZM4.34068 9.91474 0.615853 18.0465-3.65467 10.1876Z" fill="#4472C4" transform="matrix(-1 0 0 1 192.116 118.5)"/><rect x="89.5001" y="208.5" width="204" height="60" stroke="#000000" stroke-width="1.33333" stroke-miterlimit="8" fill="#FFFFFF"/><rect x="97.5001" y="219.5" width="188" height="11" stroke="#A5A5A5" stroke-width="1.33333" stroke-miterlimit="8" fill="#FFFFFF"/><text font-family="Calibri,Calibri_MSFontService,sans-serif" font-weight="400" font-size="11" transform="translate(176.234 228)">Conv <tspan font-size="11" x="24.1667" y="0">8</tspan></text><rect x="97.5001" y="230.5" width="188" height="12" stroke="#A5A5A5" stroke-width="1.33333" stroke-miterlimit="8" fill="#FFFFFF"/><text font-family="Calibri,Calibri_MSFontService,sans-serif" font-weight="400" font-size="11" transform="translate(166.901 240)">Batchnorm</text><rect x="97.5001" y="242.5" width="188" height="11" stroke="#A5A5A5" stroke-width="1.33333" stroke-miterlimit="8" fill="#FFFFFF"/><text font-family="Calibri,Calibri_MSFontService,sans-serif" font-weight="400" font-size="11" transform="translate(180.317 251)">ReLu</text><rect x="97.5001" y="253.5" width="188" height="12" stroke="#A5A5A5" stroke-width="1.33333" stroke-miterlimit="8" fill="#FFFFFF"/><text font-family="Calibri,Calibri_MSFontService,sans-serif" font-weight="400" font-size="11" transform="translate(171.734 263)">Maxpool</text><rect x="101.5" y="279.5" width="180" height="61" stroke="#000000" stroke-width="1.33333" stroke-miterlimit="8" fill="#FFFFFF"/><rect x="108.5" y="290.5" width="166" height="12" stroke="#A5A5A5" stroke-width="1.33333" stroke-miterlimit="8" fill="#FFFFFF"/><text font-family="Calibri,Calibri_MSFontService,sans-serif" font-weight="400" font-size="11" transform="translate(173.567 300)">Conv <tspan font-size="11" x="24.1667" y="0">16</tspan></text><rect x="108.5" y="302.5" width="166" height="11" stroke="#A5A5A5" stroke-width="1.33333" stroke-miterlimit="8" fill="#FFFFFF"/><text font-family="Calibri,Calibri_MSFontService,sans-serif" font-weight="400" font-size="11" transform="translate(166.901 311)">Batchnorm</text><rect x="108.5" y="313.5" width="166" height="12" stroke="#A5A5A5" stroke-width="1.33333" stroke-miterlimit="8" fill="#FFFFFF"/><text font-family="Calibri,Calibri_MSFontService,sans-serif" font-weight="400" font-size="11" transform="translate(180.317 323)">ReLu</text><rect x="108.5" y="325.5" width="166" height="11" stroke="#A5A5A5" stroke-width="1.33333" stroke-miterlimit="8" fill="#FFFFFF"/><text font-family="Calibri,Calibri_MSFontService,sans-serif" font-weight="400" font-size="11" transform="translate(171.734 334)">Maxpool</text><rect x="122.5" y="351.5" width="138" height="60" stroke="#000000" stroke-width="1.33333" stroke-miterlimit="8" fill="#FFFFFF"/><rect x="128.5" y="362.5" width="126" height="11" stroke="#A5A5A5" stroke-width="1.33333" stroke-miterlimit="8" fill="#FFFFFF"/><text font-family="Calibri,Calibri_MSFontService,sans-serif" font-weight="400" font-size="11" transform="translate(173.567 371)">Conv <tspan font-size="11" x="24.1667" y="0">32</tspan></text><rect x="128.5" y="373.5" width="126" height="12" stroke="#A5A5A5" stroke-width="1.33333" stroke-miterlimit="8" fill="#FFFFFF"/><text font-family="Calibri,Calibri_MSFontService,sans-serif" font-weight="400" font-size="11" transform="translate(166.901 383)">Batchnorm</text><rect x="128.5" y="385.5" width="126" height="11" stroke="#A5A5A5" stroke-width="1.33333" stroke-miterlimit="8" fill="#FFFFFF"/><text font-family="Calibri,Calibri_MSFontService,sans-serif" font-weight="400" font-size="11" transform="translate(180.317 394)">ReLu</text><rect x="128.5" y="396.5" width="126" height="12" stroke="#A5A5A5" stroke-width="1.33333" stroke-miterlimit="8" fill="#FFFFFF"/><text font-family="Calibri,Calibri_MSFontService,sans-serif" font-weight="400" font-size="11" transform="translate(171.734 406)">Maxpool</text><rect x="145.5" y="422.5" width="91" height="61" stroke="#000000" stroke-width="1.33333" stroke-miterlimit="8" fill="#FFFFFF"/><rect x="149.5" y="433.5" width="83" height="12" stroke="#A5A5A5" stroke-width="1.33333" stroke-miterlimit="8" fill="#FFFFFF"/><text font-family="Calibri,Calibri_MSFontService,sans-serif" font-weight="400" font-size="11" transform="translate(173.061 442)">Conv <tspan font-size="11" x="24.1667" y="0">64</tspan></text><rect x="149.5" y="445.5" width="83" height="11" stroke="#A5A5A5" stroke-width="1.33333" stroke-miterlimit="8" fill="#FFFFFF"/><text font-family="Calibri,Calibri_MSFontService,sans-serif" font-weight="400" font-size="11" transform="translate(166.394 454)">Batchnorm</text><rect x="149.5" y="456.5" width="83" height="12" stroke="#A5A5A5" stroke-width="1.33333" stroke-miterlimit="8" fill="#FFFFFF"/><text font-family="Calibri,Calibri_MSFontService,sans-serif" font-weight="400" font-size="11" transform="translate(179.811 466)">ReLu</text><rect x="149.5" y="468.5" width="83" height="11" stroke="#A5A5A5" stroke-width="1.33333" stroke-miterlimit="8" fill="#FFFFFF"/><text font-family="Calibri,Calibri_MSFontService,sans-serif" font-weight="400" font-size="11" transform="translate(171.227 477)">Maxpool</text><path d="M0.333333-2.42984e-06 0.33339 7.73575-0.333277 7.73575-0.333333 2.42984e-06ZM4.00005 6.40238 0.000104987 14.4024-3.99995 6.40244Z" fill="#4472C4" transform="matrix(-1 0 0 1 191.5 193.5)"/><path d="M191.833 268.5 191.833 272.944 191.167 272.944 191.167 268.5ZM195.5 271.61 191.5 279.611 187.5 271.611Z" fill="#4472C4"/><path d="M0.333333-2.42984e-06 0.33339 7.73575-0.333277 7.73575-0.333333 2.42984e-06ZM4.00005 6.40238 0.000104987 14.4024-3.99995 6.40244Z" fill="#4472C4" transform="matrix(-1 0 0 1 191.5 336.5)"/><path d="M0.333127-0.0117217 0.605465 7.72804-0.0607892 7.75149-0.333127 0.0117217ZM4.22298 6.2666 0.506772 14.4023-3.77207 6.54792Z" fill="#4472C4" transform="matrix(-1 0 0 1 191.007 408.5)"/></g></svg>